<svg xmlns="http://www.w3.org/2000/svg" viewBox="0 0 1920 1080">
  <defs>
    <pattern id="grid" width="80" height="80" patternUnits="userSpaceOnUse">
      <path d="M 80 0 L 0 0 0 80" fill="none" stroke="#0ea5e9" stroke-opacity="0.42" stroke-width="1"/>
    </pattern>
  </defs>

  <rect width="1920" height="1080" fill="#0a0f1d"/>
  <rect width="1920" height="1080" fill="url(#grid)"/>
  <rect x="150" y="150" width="1620" height="780" fill="#0b1322" opacity="0.76"/>

  <g fill="#e2e8f0" opacity="0.75">
    <circle cx="72" cy="104" r="1.2"/><circle cx="114" cy="220" r="1.7"/><circle cx="170" cy="78" r="1.3"/>
    <circle cx="240" cy="154" r="2.6"/><circle cx="321" cy="118" r="1.1"/><circle cx="391" cy="205" r="2.8"/>
    <circle cx="455" cy="160" r="1.4"/><circle cx="518" cy="89" r="2.2"/><circle cx="637" cy="147" r="2.4"/>
    <circle cx="688" cy="111" r="1.9"/><circle cx="751" cy="196" r="2.2"/><circle cx="816" cy="98" r="1.1"/>
    <circle cx="892" cy="132" r="2.3"/><circle cx="944" cy="80" r="1.5"/><circle cx="1017" cy="176" r="2.5"/>
    <circle cx="1094" cy="118" r="1.3"/><circle cx="1187" cy="162" r="2.1"/><circle cx="1268" cy="91" r="1.4"/>
    <circle cx="1345" cy="153" r="2.4"/><circle cx="1430" cy="107" r="2.1"/><circle cx="1518" cy="183" r="1.7"/>
    <circle cx="1584" cy="121" r="2.3"/><circle cx="1660" cy="144" r="1.8"/><circle cx="1748" cy="102" r="2.6"/>
    <circle cx="1820" cy="186" r="1.5"/><circle cx="1886" cy="142" r="1.2"/><circle cx="96" cy="324" r="2.2"/>
    <circle cx="180" cy="285" r="1.4"/><circle cx="267" cy="341" r="2.6"/><circle cx="351" cy="294" r="1.8"/>
    <circle cx="432" cy="368" r="2.1"/><circle cx="517" cy="320" r="2.5"/><circle cx="601" cy="282" r="1.2"/>
    <circle cx="694" cy="350" r="1.8"/><circle cx="781" cy="309" r="2.3"/><circle cx="866" cy="362" r="1.5"/>
    <circle cx="954" cy="296" r="2.2"/><circle cx="1036" cy="345" r="1.4"/><circle cx="1120" cy="289" r="2.7"/>
    <circle cx="1207" cy="372" r="1.7"/><circle cx="1292" cy="318" r="2.4"/><circle cx="1381" cy="354" r="1.4"/>
    <circle cx="1460" cy="304" r="2.5"/><circle cx="1548" cy="343" r="1.6"/><circle cx="1632" cy="296" r="2.3"/>
    <circle cx="1715" cy="362" r="1.9"/><circle cx="1806" cy="316" r="2.1"/><circle cx="1888" cy="360" r="1.5"/>
    <circle cx="85" cy="508" r="2.4"/><circle cx="168" cy="460" r="1.6"/><circle cx="256" cy="525" r="2.2"/>
    <circle cx="341" cy="472" r="1.4"/><circle cx="426" cy="541" r="2.5"/><circle cx="511" cy="486" r="1.7"/>
    <circle cx="598" cy="550" r="1.3"/><circle cx="686" cy="494" r="2.6"/><circle cx="775" cy="541" r="1.8"/>
    <circle cx="862" cy="481" r="2.1"/><circle cx="948" cy="556" r="1.4"/><circle cx="1034" cy="503" r="2.4"/>
    <circle cx="1121" cy="546" r="1.6"/><circle cx="1208" cy="485" r="2.2"/><circle cx="1290" cy="553" r="1.4"/>
    <circle cx="1378" cy="497" r="2.7"/><circle cx="1464" cy="541" r="1.8"/><circle cx="1550" cy="488" r="2.2"/>
    <circle cx="1637" cy="549" r="1.5"/><circle cx="1720" cy="501" r="2.6"/><circle cx="1811" cy="538" r="1.8"/>
    <circle cx="1887" cy="494" r="2.2"/><circle cx="82" cy="692" r="1.6"/><circle cx="172" cy="739" r="2.5"/>
    <circle cx="258" cy="683" r="1.5"/><circle cx="347" cy="748" r="2.3"/><circle cx="436" cy="701" r="1.7"/>
    <circle cx="523" cy="760" r="2.4"/><circle cx="612" cy="709" r="1.4"/><circle cx="695" cy="772" r="2.2"/>
    <circle cx="786" cy="720" r="1.6"/><circle cx="874" cy="766" r="2.6"/><circle cx="959" cy="710" r="1.5"/>
    <circle cx="1048" cy="776" r="2.4"/><circle cx="1135" cy="726" r="1.8"/><circle cx="1222" cy="789" r="2.1"/>
    <circle cx="1309" cy="732" r="1.4"/><circle cx="1394" cy="786" r="2.5"/><circle cx="1481" cy="740" r="1.7"/>
    <circle cx="1570" cy="799" r="2.2"/><circle cx="1654" cy="745" r="1.6"/><circle cx="1743" cy="803" r="2.4"/>
    <circle cx="1828" cy="752" r="1.5"/><circle cx="1896" cy="808" r="2.3"/><circle cx="96" cy="925" r="2.1"/>
    <circle cx="185" cy="881" r="1.3"/><circle cx="274" cy="944" r="2.5"/><circle cx="360" cy="891" r="1.8"/>
    <circle cx="445" cy="956" r="2.2"/><circle cx="528" cy="904" r="1.4"/><circle cx="618" cy="970" r="2.7"/>
    <circle cx="706" cy="914" r="1.5"/><circle cx="793" cy="977" r="2.1"/><circle cx="878" cy="926" r="1.7"/>
    <circle cx="965" cy="989" r="2.4"/><circle cx="1050" cy="935" r="1.3"/><circle cx="1142" cy="998" r="2.5"/>
    <circle cx="1228" cy="942" r="1.6"/><circle cx="1316" cy="1006" r="2.2"/><circle cx="1403" cy="951" r="1.7"/>
    <circle cx="1489" cy="1012" r="2.4"/><circle cx="1578" cy="959" r="1.5"/><circle cx="1666" cy="1020" r="2.3"/>
    <circle cx="1751" cy="972" r="1.6"/><circle cx="1839" cy="1034" r="2.6"/>
  </g>
</svg>
